<svg id="visual" viewBox="0 0 960 100" width="960" height="100" xmlns="http://www.w3.org/2000/svg" xmlns:xlink="http://www.w3.org/1999/xlink" version="1.1"><rect x="0" y="0" width="960" height="100" fill="#ffffff"></rect><path d="M0 42L13.3 43.3C26.7 44.7 53.3 47.3 80 47.2C106.7 47 133.3 44 160 42.5C186.7 41 213.3 41 240 39.3C266.7 37.7 293.3 34.3 320 35.3C346.7 36.3 373.3 41.7 400 44.7C426.7 47.7 453.3 48.3 480 47.8C506.7 47.3 533.3 45.7 560 46.8C586.7 48 613.3 52 640 53.2C666.7 54.3 693.3 52.7 720 49.5C746.7 46.3 773.3 41.7 800 42.8C826.7 44 853.3 51 880 49.7C906.7 48.3 933.3 38.7 946.7 33.8L960 29L960 101L946.7 101C933.3 101 906.7 101 880 101C853.3 101 826.7 101 800 101C773.3 101 746.7 101 720 101C693.3 101 666.7 101 640 101C613.3 101 586.7 101 560 101C533.3 101 506.7 101 480 101C453.3 101 426.7 101 400 101C373.3 101 346.7 101 320 101C293.3 101 266.7 101 240 101C213.3 101 186.7 101 160 101C133.3 101 106.7 101 80 101C53.3 101 26.7 101 13.3 101L0 101Z" fill="#00568e"></path><path d="M0 47L13.3 49.8C26.7 52.7 53.3 58.3 80 58.8C106.7 59.3 133.3 54.7 160 53.3C186.7 52 213.3 54 240 54C266.7 54 293.3 52 320 52C346.7 52 373.3 54 400 54.5C426.7 55 453.3 54 480 51.5C506.7 49 533.3 45 560 45.8C586.7 46.7 613.3 52.3 640 52.2C666.7 52 693.3 46 720 43.7C746.7 41.3 773.3 42.7 800 43.8C826.7 45 853.3 46 880 46C906.7 46 933.3 45 946.7 44.5L960 44L960 101L946.7 101C933.3 101 906.7 101 880 101C853.3 101 826.7 101 800 101C773.3 101 746.7 101 720 101C693.3 101 666.7 101 640 101C613.3 101 586.7 101 560 101C533.3 101 506.7 101 480 101C453.3 101 426.7 101 400 101C373.3 101 346.7 101 320 101C293.3 101 266.7 101 240 101C213.3 101 186.7 101 160 101C133.3 101 106.7 101 80 101C53.3 101 26.7 101 13.3 101L0 101Z" fill="#034977"></path><path d="M0 52L13.3 53.7C26.7 55.3 53.3 58.7 80 58.8C106.7 59 133.3 56 160 56.8C186.7 57.7 213.3 62.3 240 61.5C266.7 60.7 293.3 54.3 320 54.5C346.7 54.7 373.3 61.3 400 63.2C426.7 65 453.3 62 480 60.7C506.7 59.3 533.3 59.7 560 61.5C586.7 63.3 613.3 66.7 640 68C666.7 69.3 693.3 68.7 720 67.8C746.7 67 773.3 66 800 64.5C826.7 63 853.3 61 880 58.8C906.7 56.7 933.3 54.3 946.7 53.2L960 52L960 101L946.7 101C933.3 101 906.7 101 880 101C853.3 101 826.7 101 800 101C773.3 101 746.7 101 720 101C693.3 101 666.7 101 640 101C613.3 101 586.7 101 560 101C533.3 101 506.7 101 480 101C453.3 101 426.7 101 400 101C373.3 101 346.7 101 320 101C293.3 101 266.7 101 240 101C213.3 101 186.7 101 160 101C133.3 101 106.7 101 80 101C53.3 101 26.7 101 13.3 101L0 101Z" fill="#083c60"></path><path d="M0 66L13.3 65.7C26.7 65.3 53.3 64.7 80 65C106.7 65.3 133.3 66.7 160 65.7C186.7 64.7 213.3 61.3 240 61.2C266.7 61 293.3 64 320 65.2C346.7 66.3 373.3 65.7 400 66.5C426.7 67.3 453.3 69.7 480 68.8C506.7 68 533.3 64 560 64.5C586.7 65 613.3 70 640 71.3C666.7 72.7 693.3 70.3 720 69C746.7 67.7 773.3 67.3 800 67.3C826.7 67.3 853.3 67.7 880 67.2C906.7 66.7 933.3 65.3 946.7 64.7L960 64L960 101L946.7 101C933.3 101 906.7 101 880 101C853.3 101 826.7 101 800 101C773.3 101 746.7 101 720 101C693.3 101 666.7 101 640 101C613.3 101 586.7 101 560 101C533.3 101 506.7 101 480 101C453.3 101 426.7 101 400 101C373.3 101 346.7 101 320 101C293.3 101 266.7 101 240 101C213.3 101 186.7 101 160 101C133.3 101 106.7 101 80 101C53.3 101 26.7 101 13.3 101L0 101Z" fill="#0c304a"></path><path d="M0 69L13.3 70.2C26.7 71.3 53.3 73.7 80 74C106.7 74.3 133.3 72.7 160 73.5C186.7 74.3 213.3 77.7 240 77.7C266.7 77.7 293.3 74.3 320 74.2C346.7 74 373.3 77 400 78.3C426.7 79.7 453.3 79.3 480 79C506.7 78.7 533.3 78.3 560 77C586.7 75.7 613.3 73.3 640 72.5C666.7 71.7 693.3 72.3 720 73.2C746.7 74 773.3 75 800 76.2C826.7 77.3 853.3 78.7 880 79.2C906.7 79.7 933.3 79.3 946.7 79.2L960 79L960 101L946.7 101C933.3 101 906.7 101 880 101C853.3 101 826.7 101 800 101C773.3 101 746.7 101 720 101C693.3 101 666.7 101 640 101C613.3 101 586.7 101 560 101C533.3 101 506.7 101 480 101C453.3 101 426.7 101 400 101C373.3 101 346.7 101 320 101C293.3 101 266.7 101 240 101C213.3 101 186.7 101 160 101C133.3 101 106.7 101 80 101C53.3 101 26.7 101 13.3 101L0 101Z" fill="#0d2436"></path><path d="M0 76L13.3 77.5C26.7 79 53.3 82 80 84.2C106.7 86.3 133.3 87.7 160 87.2C186.7 86.7 213.3 84.3 240 82.7C266.7 81 293.3 80 320 79.2C346.7 78.3 373.3 77.7 400 77.2C426.7 76.7 453.3 76.3 480 77.2C506.7 78 533.3 80 560 81.2C586.7 82.3 613.3 82.7 640 81.7C666.7 80.7 693.3 78.3 720 77.8C746.7 77.3 773.3 78.7 800 79.2C826.7 79.7 853.3 79.3 880 79.5C906.7 79.7 933.3 80.3 946.7 80.7L960 81L960 101L946.7 101C933.3 101 906.7 101 880 101C853.3 101 826.7 101 800 101C773.3 101 746.7 101 720 101C693.3 101 666.7 101 640 101C613.3 101 586.7 101 560 101C533.3 101 506.7 101 480 101C453.3 101 426.7 101 400 101C373.3 101 346.7 101 320 101C293.3 101 266.7 101 240 101C213.3 101 186.7 101 160 101C133.3 101 106.7 101 80 101C53.3 101 26.7 101 13.3 101L0 101Z" fill="#0c1822"></path><path d="M0 91L13.3 90.2C26.7 89.3 53.3 87.7 80 87.3C106.7 87 133.3 88 160 89.5C186.7 91 213.3 93 240 93.5C266.7 94 293.3 93 320 92.2C346.7 91.3 373.3 90.7 400 89.8C426.7 89 453.3 88 480 87.5C506.7 87 533.3 87 560 87.7C586.7 88.3 613.3 89.7 640 89.8C666.7 90 693.3 89 720 88.5C746.7 88 773.3 88 800 88.3C826.7 88.7 853.3 89.3 880 89C906.7 88.7 933.3 87.3 946.7 86.7L960 86L960 101L946.7 101C933.3 101 906.7 101 880 101C853.3 101 826.7 101 800 101C773.3 101 746.7 101 720 101C693.3 101 666.7 101 640 101C613.3 101 586.7 101 560 101C533.3 101 506.7 101 480 101C453.3 101 426.7 101 400 101C373.3 101 346.7 101 320 101C293.3 101 266.7 101 240 101C213.3 101 186.7 101 160 101C133.3 101 106.7 101 80 101C53.3 101 26.7 101 13.3 101L0 101Z" fill="#03090f"></path></svg>